<svg xmlns="http://www.w3.org/2000/svg" viewBox="0 0 350 209.011" preserveAspectRatio="none">
    <g transform="translate(-246 -2796)">
        <path d="M104.562,200.8c44,0,68.025,48.34,103.629,12.736,26.46-26.46,83.927-13.592,111.7-5.237V33.447a6.25,6.25,0,0,0-6.25-6.25h-337.5a6.25,6.25,0,0,0-6.25,6.25V215.49a48.561,48.561,0,0,1,16.567,11.128C18.306,258.462,60.564,200.8,104.562,200.8Z" transform="translate(276.106 2768.803)" fill="#377DFF" opacity="0.8"/>
        <path d="M41.4,213.679c34.086,34.086,57.086-12.193,99.208-12.193s82.578,55.206,113.064,24.72c25.846-25.846,57.26-7.871,66.225-1.8V33.447a6.25,6.25,0,0,0-6.25-6.25h-337.5a6.25,6.25,0,0,0-6.25,6.25v167.1C-4.407,196.651,24.839,197.121,41.4,213.679Z" transform="translate(276.106 2768.803)" fill="#377DFF" opacity="0.8"/>
    </g>
</svg>